<mxfile host="app.diagrams.net" agent="Mozilla/5.0 (Macintosh; Intel Mac OS X 10_15_7) AppleWebKit/537.36 (KHTML, like Gecko) Chrome/131.0.0.0 Safari/537.36" version="26.0.8" pages="3">
  <diagram name="Steps" id="D0P0rPEqZf0mlN7qkpkt">
    <mxGraphModel dx="1951" dy="1037" grid="1" gridSize="10" guides="1" tooltips="1" connect="1" arrows="1" fold="1" page="1" pageScale="1" pageWidth="850" pageHeight="1100" math="0" shadow="0">
      <root>
        <mxCell id="0" />
        <mxCell id="1" parent="0" />
        <mxCell id="k5fm_F2_kpiR6oeNnVN6-1" value="Treasure Mania Setup" style="html=1;overflow=block;blockSpacing=1;whiteSpace=wrap;fontSize=21.7;fontColor=#3a414a;fontStyle=1;spacing=3.8;strokeOpacity=0;fillOpacity=0;rounded=1;absoluteArcSize=1;arcSize=9;fillColor=#ffffff;strokeWidth=0.8;lucidId=60ZshOkhI3A8;" vertex="1" parent="1">
          <mxGeometry x="515" y="11" width="307" height="60" as="geometry" />
        </mxCell>
        <mxCell id="k5fm_F2_kpiR6oeNnVN6-2" value="" style="html=1;overflow=block;blockSpacing=1;whiteSpace=wrap;shape=image;fontSize=13;spacing=0;strokeColor=none;strokeOpacity=100;strokeWidth=0;image=https://images.lucid.app/images/df35bd32-c4fe-4948-aaf8-b62a83ad1eb7/content;imageAspect=0;lucidId=v1ZsF5DXZviM;" vertex="1" parent="1">
          <mxGeometry x="132" y="104" width="355" height="208" as="geometry" />
        </mxCell>
        <mxCell id="k5fm_F2_kpiR6oeNnVN6-3" value="" style="html=1;overflow=block;blockSpacing=1;whiteSpace=wrap;shape=image;fontSize=13;spacing=0;strokeColor=none;strokeOpacity=100;strokeWidth=0;image=https://images.lucid.app/images/1a73e816-e7cb-44b0-9282-de2776a28976/content;imageAspect=0;lucidId=N1Zs.gNjQIEK;" vertex="1" parent="1">
          <mxGeometry x="137" y="373" width="350" height="191" as="geometry" />
        </mxCell>
        <mxCell id="k5fm_F2_kpiR6oeNnVN6-4" value="" style="html=1;overflow=block;blockSpacing=1;whiteSpace=wrap;shape=image;fontSize=13;spacing=0;strokeColor=none;strokeOpacity=100;strokeWidth=0;image=https://images.lucid.app/images/afd74d60-bd44-4695-bbba-137e81aa5e69/content;imageAspect=0;lucidId=a2ZssKQqoQrk;" vertex="1" parent="1">
          <mxGeometry x="137" y="638" width="351" height="196" as="geometry" />
        </mxCell>
        <mxCell id="k5fm_F2_kpiR6oeNnVN6-5" value="Step 1" style="html=1;overflow=block;blockSpacing=1;whiteSpace=wrap;fontSize=16.7;fontColor=#3a414a;fontStyle=1;spacing=3.8;strokeOpacity=0;fillOpacity=0;rounded=1;absoluteArcSize=1;arcSize=9;fillColor=#ffffff;strokeWidth=0.8;lucidId=i2ZsZnJC2orE;" vertex="1" parent="1">
          <mxGeometry x="64" y="70" width="180" height="45" as="geometry" />
        </mxCell>
        <mxCell id="k5fm_F2_kpiR6oeNnVN6-6" value="Step 2" style="html=1;overflow=block;blockSpacing=1;whiteSpace=wrap;fontSize=16.7;fontColor=#3a414a;fontStyle=1;spacing=3.8;strokeOpacity=0;fillOpacity=0;rounded=1;absoluteArcSize=1;arcSize=9;fillColor=#ffffff;strokeWidth=0.8;lucidId=t2ZsYhyUbmtf;" vertex="1" parent="1">
          <mxGeometry x="64" y="332" width="180" height="45" as="geometry" />
        </mxCell>
        <mxCell id="k5fm_F2_kpiR6oeNnVN6-7" value="Step 3" style="html=1;overflow=block;blockSpacing=1;whiteSpace=wrap;fontSize=16.7;fontColor=#3a414a;fontStyle=1;spacing=3.8;strokeOpacity=0;fillOpacity=0;rounded=1;absoluteArcSize=1;arcSize=9;fillColor=#ffffff;strokeWidth=0.8;lucidId=I2ZshvZAamaj;" vertex="1" parent="1">
          <mxGeometry x="64" y="598" width="180" height="45" as="geometry" />
        </mxCell>
        <mxCell id="k5fm_F2_kpiR6oeNnVN6-8" value="" style="strokeColor=none;fillColor=none;whiteSpace=wrap;fontSize=16.7;fontColor=#3a414a;fontStyle=1;spacingLeft=16.7;spacing=3.8;strokeOpacity=100;rounded=1;absoluteArcSize=1;arcSize=9;strokeWidth=0.8;html=1;" vertex="1" parent="1">
          <mxGeometry x="582" y="110" width="358" height="195" as="geometry" />
        </mxCell>
        <mxCell id="k5fm_F2_kpiR6oeNnVN6-9" value="" style="shape=curlyBracket;rounded=1;flipH=1;whiteSpace=wrap;fontSize=16.7;fontColor=#3a414a;fontStyle=1;spacingLeft=16.7;spacing=3.8;strokeColor=#3a414a;strokeOpacity=100;strokeWidth=0.8;" vertex="1" parent="k5fm_F2_kpiR6oeNnVN6-8">
          <mxGeometry width="24.375" height="195" as="geometry" />
        </mxCell>
        <mxCell id="k5fm_F2_kpiR6oeNnVN6-10" value="&lt;div style=&quot;display: flex; justify-content: center; text-align: center; align-items: baseline; font-size: 0; line-height: 1.25;margin-top: -2px;&quot;&gt;&lt;span&gt;&lt;span style=&quot;font-size:16.7px;color:#3a414a;font-weight: bold;&quot;&gt;Step #1&#xa;&lt;/span&gt;&lt;/span&gt;&lt;/div&gt;&lt;ul style=&quot;margin: 0px; padding-left: 10px;list-style-position: inside; list-style-type:disc&quot;&gt;&lt;li style=&quot;text-align:center;color:#3a414a;font-size:16.7px;&quot;&gt;&lt;span style=&quot;margin-left: 0px;margin-top: -2px;&quot;&gt;&lt;span style=&quot;font-size:16.7px;color:#3a414a;font-weight: bold;&quot;&gt;Kevel-Treasure&lt;/span&gt;&lt;span style=&quot;font-size:16.7px;color:#3a414a;&quot;&gt;&lt;/span&gt;&lt;/span&gt;&lt;/li&gt;&lt;li style=&quot;text-align:center;color:#3a414a;font-size:16.7px;&quot;&gt;&lt;span style=&quot;margin-left: 0px;margin-top: -2px;&quot;&gt;&lt;span style=&quot;font-size:16.7px;color:#3a414a;&quot;&gt;Client Logo&lt;/span&gt;&lt;/span&gt;&lt;/li&gt;&lt;li style=&quot;text-align:center;color:#3a414a;font-size:16.7px;&quot;&gt;&lt;span style=&quot;margin-left: 0px;margin-top: -2px;&quot;&gt;&lt;span style=&quot;font-size:16.7px;color:#3a414a;&quot;&gt;Disclaimer text&lt;/span&gt;&lt;/span&gt;&lt;/li&gt;&lt;li style=&quot;text-align:center;color:#3a414a;font-size:16.7px;&quot;&gt;&lt;span style=&quot;margin-left: 0px;margin-top: -2px;&quot;&gt;&lt;span style=&quot;font-size:16.7px;color:#3a414a;&quot;&gt;Impression URL&lt;/span&gt;&lt;/span&gt;&lt;/li&gt;&lt;li style=&quot;text-align:center;color:#3a414a;font-size:16.7px;&quot;&gt;&lt;span style=&quot;margin-left: 0px;margin-top: -2px;&quot;&gt;&lt;span style=&quot;font-size:16.7px;color:#3a414a;&quot;&gt;&lt;span style=&quot;font-size:16.7px;color:#3a414a;font-weight: bold;&quot;&gt;MPO&lt;/span&gt;&lt;/span&gt;&lt;/span&gt;&lt;/li&gt;&lt;li style=&quot;text-align:center;color:#3a414a;font-size:16.7px;&quot;&gt;&lt;span style=&quot;margin-left: 0px;margin-top: -2px;&quot;&gt;&lt;span style=&quot;font-size:16.7px;color:#3a414a;&quot;&gt;Backgound image&lt;/span&gt;&lt;/span&gt;&lt;/li&gt;&lt;li style=&quot;text-align:center;color:#3a414a;font-size:16.7px;&quot;&gt;&lt;span style=&quot;margin-left: 0px;margin-top: -2px;&quot;&gt;&lt;span style=&quot;font-size:16.7px;color:#3a414a;&quot;&gt;Open Now - continue button&lt;/span&gt;&lt;/span&gt;&lt;/li&gt;&lt;li style=&quot;text-align:center;color:#3a414a;font-size:16.7px;&quot;&gt;&lt;span style=&quot;margin-left: 0px;margin-top: -2px;&quot;&gt;&lt;span style=&quot;font-size:16.7px;color:#3a414a;&quot;&gt;Pixel fire behaviour&lt;/span&gt;&lt;/span&gt;&lt;/li&gt;&lt;/ul&gt;" style="strokeColor=none;fillColor=none;whiteSpace=wrap;overflow=block;blockSpacing=1;html=1;fontSize=13;spacing=3.8;strokeOpacity=100;rounded=1;absoluteArcSize=1;arcSize=9;strokeWidth=0.8;" vertex="1" parent="k5fm_F2_kpiR6oeNnVN6-8">
          <mxGeometry x="24.375" width="333.625" height="195" as="geometry" />
        </mxCell>
        <mxCell id="k5fm_F2_kpiR6oeNnVN6-11" value="" style="html=1;jettySize=18;whiteSpace=wrap;fontSize=13;strokeColor=#3a414a;strokeOpacity=100;strokeWidth=0.8;rounded=1;arcSize=12;edgeStyle=orthogonalEdgeStyle;startArrow=none;endArrow=block;endFill=1;exitX=0.5;exitY=1;exitPerimeter=0;entryX=0.492;entryY=0;entryPerimeter=0;lucidId=R3ZsWVgd1fD7;" edge="1" parent="1" source="k5fm_F2_kpiR6oeNnVN6-2" target="k5fm_F2_kpiR6oeNnVN6-3">
          <mxGeometry width="100" height="100" relative="1" as="geometry">
            <Array as="points" />
          </mxGeometry>
        </mxCell>
        <mxCell id="k5fm_F2_kpiR6oeNnVN6-12" value="" style="html=1;jettySize=18;whiteSpace=wrap;fontSize=13;strokeColor=#3a414a;strokeOpacity=100;strokeWidth=0.8;rounded=1;arcSize=12;edgeStyle=orthogonalEdgeStyle;startArrow=none;endArrow=block;endFill=1;exitX=0.5;exitY=1;exitPerimeter=0;entryX=0.498;entryY=0;entryPerimeter=0;lucidId=V3ZsDFWBf~ee;" edge="1" parent="1" source="k5fm_F2_kpiR6oeNnVN6-3" target="k5fm_F2_kpiR6oeNnVN6-4">
          <mxGeometry width="100" height="100" relative="1" as="geometry">
            <Array as="points" />
          </mxGeometry>
        </mxCell>
        <mxCell id="k5fm_F2_kpiR6oeNnVN6-13" value="" style="strokeColor=none;fillColor=none;whiteSpace=wrap;fontSize=16.7;fontColor=#3a414a;fontStyle=1;spacingLeft=16.7;spacing=3.8;strokeOpacity=100;rounded=1;absoluteArcSize=1;arcSize=9;strokeWidth=0.8;html=1;" vertex="1" parent="1">
          <mxGeometry x="582" y="369" width="358" height="206" as="geometry" />
        </mxCell>
        <mxCell id="k5fm_F2_kpiR6oeNnVN6-14" value="" style="shape=curlyBracket;rounded=1;flipH=1;whiteSpace=wrap;fontSize=16.7;fontColor=#3a414a;fontStyle=1;spacingLeft=16.7;spacing=3.8;strokeColor=#3a414a;strokeOpacity=100;strokeWidth=0.8;" vertex="1" parent="k5fm_F2_kpiR6oeNnVN6-13">
          <mxGeometry width="25.75" height="206" as="geometry" />
        </mxCell>
        <mxCell id="k5fm_F2_kpiR6oeNnVN6-15" value="&lt;div style=&quot;display: flex; justify-content: center; text-align: center; align-items: baseline; font-size: 0; line-height: 1.25;margin-top: -2px;&quot;&gt;&lt;span&gt;&lt;span style=&quot;font-size:16.7px;color:#3a414a;font-weight: bold;&quot;&gt;Step #2&#xa;&lt;/span&gt;&lt;/span&gt;&lt;/div&gt;&lt;ul style=&quot;margin: 0px; padding-left: 10px;list-style-position: inside; list-style-type:disc&quot;&gt;&lt;li style=&quot;text-align:center;color:#3a414a;font-size:16.7px;&quot;&gt;&lt;span style=&quot;margin-left: 0px;margin-top: -2px;&quot;&gt;&lt;span style=&quot;font-size:16.7px;color:#3a414a;font-weight: bold;&quot;&gt;Kevel-Treasure&lt;/span&gt;&lt;span style=&quot;font-size:16.7px;color:#3a414a;&quot;&gt;&lt;/span&gt;&lt;/span&gt;&lt;/li&gt;&lt;li style=&quot;text-align:center;color:#3a414a;font-size:16.7px;&quot;&gt;&lt;span style=&quot;margin-left: 0px;margin-top: -2px;&quot;&gt;&lt;span style=&quot;font-size:16.7px;color:#3a414a;&quot;&gt;Prize details&lt;/span&gt;&lt;/span&gt;&lt;/li&gt;&lt;li style=&quot;text-align:center;color:#3a414a;font-size:16.7px;&quot;&gt;&lt;span style=&quot;margin-left: 0px;margin-top: -2px;&quot;&gt;&lt;span style=&quot;font-size:16.7px;color:#3a414a;&quot;&gt;&lt;span style=&quot;font-size:16.7px;color:#3a414a;font-weight: bold;&quot;&gt;MPO&lt;/span&gt;&lt;/span&gt;&lt;/span&gt;&lt;/li&gt;&lt;li style=&quot;text-align:center;color:#3a414a;font-size:16.7px;&quot;&gt;&lt;span style=&quot;margin-left: 0px;margin-top: -2px;&quot;&gt;&lt;span style=&quot;font-size:16.7px;color:#3a414a;&quot;&gt;Backgound image&lt;/span&gt;&lt;/span&gt;&lt;/li&gt;&lt;li style=&quot;text-align:center;color:#3a414a;font-size:16.7px;&quot;&gt;&lt;span style=&quot;margin-left: 0px;margin-top: -2px;&quot;&gt;&lt;span style=&quot;font-size:16.7px;color:#3a414a;&quot;&gt;3 accross table with images and award&lt;/span&gt;&lt;/span&gt;&lt;/li&gt;&lt;li style=&quot;text-align:center;color:#3a414a;font-size:16.7px;&quot;&gt;&lt;span style=&quot;margin-left: 0px;margin-top: -2px;&quot;&gt;&lt;span style=&quot;font-size:16.7px;color:#3a414a;&quot;&gt;Entries&lt;/span&gt;&lt;/span&gt;&lt;/li&gt;&lt;li style=&quot;text-align:center;color:#3a414a;font-size:16.7px;&quot;&gt;&lt;span style=&quot;margin-left: 0px;margin-top: -2px;&quot;&gt;&lt;span style=&quot;font-size:16.7px;color:#3a414a;&quot;&gt;Entry&lt;/span&gt;&lt;/span&gt;&lt;/li&gt;&lt;li style=&quot;text-align:center;color:#3a414a;font-size:16.7px;&quot;&gt;&lt;span style=&quot;margin-left: 0px;margin-top: -2px;&quot;&gt;&lt;span style=&quot;font-size:16.7px;color:#3a414a;&quot;&gt;Tokens&lt;/span&gt;&lt;/span&gt;&lt;/li&gt;&lt;li style=&quot;text-align:center;color:#3a414a;font-size:16.7px;&quot;&gt;&lt;span style=&quot;margin-left: 0px;margin-top: -2px;&quot;&gt;&lt;span style=&quot;font-size:16.7px;color:#3a414a;&quot;&gt;Behavior to auto continue&lt;/span&gt;&lt;/span&gt;&lt;/li&gt;&lt;/ul&gt;" style="strokeColor=none;fillColor=none;whiteSpace=wrap;overflow=block;blockSpacing=1;html=1;fontSize=13;spacing=3.8;strokeOpacity=100;rounded=1;absoluteArcSize=1;arcSize=9;strokeWidth=0.8;" vertex="1" parent="k5fm_F2_kpiR6oeNnVN6-13">
          <mxGeometry x="25.75" width="332.25" height="206" as="geometry" />
        </mxCell>
        <mxCell id="k5fm_F2_kpiR6oeNnVN6-16" value="" style="strokeColor=none;fillColor=none;whiteSpace=wrap;fontSize=16.7;fontColor=#3a414a;fontStyle=1;spacingLeft=16.7;spacing=3.8;strokeOpacity=100;rounded=1;absoluteArcSize=1;arcSize=9;strokeWidth=0.8;html=1;" vertex="1" parent="1">
          <mxGeometry x="582" y="628" width="358" height="237" as="geometry" />
        </mxCell>
        <mxCell id="k5fm_F2_kpiR6oeNnVN6-17" value="" style="shape=curlyBracket;rounded=1;flipH=1;whiteSpace=wrap;fontSize=16.7;fontColor=#3a414a;fontStyle=1;spacingLeft=16.7;spacing=3.8;strokeColor=#3a414a;strokeOpacity=100;strokeWidth=0.8;" vertex="1" parent="k5fm_F2_kpiR6oeNnVN6-16">
          <mxGeometry width="29.625" height="237" as="geometry" />
        </mxCell>
        <mxCell id="k5fm_F2_kpiR6oeNnVN6-18" value="&lt;div style=&quot;display: flex; justify-content: center; text-align: center; align-items: baseline; font-size: 0; line-height: 1.25;margin-top: -2px;&quot;&gt;&lt;span&gt;&lt;span style=&quot;font-size:16.7px;color:#3a414a;font-weight: bold;&quot;&gt;Step #3&#xa;&lt;/span&gt;&lt;/span&gt;&lt;/div&gt;&lt;ul style=&quot;margin: 0px; padding-left: 10px;list-style-position: inside; list-style-type:disc&quot;&gt;&lt;li style=&quot;text-align:center;color:#3a414a;font-size:16.7px;&quot;&gt;&lt;span style=&quot;margin-left: 0px;margin-top: -2px;&quot;&gt;&lt;span style=&quot;font-size:16.7px;color:#3a414a;font-weight: bold;&quot;&gt;Kevel-Treasure&lt;/span&gt;&lt;span style=&quot;font-size:16.7px;color:#3a414a;&quot;&gt;&lt;/span&gt;&lt;/span&gt;&lt;/li&gt;&lt;li style=&quot;text-align:center;color:#3a414a;font-size:16.7px;&quot;&gt;&lt;span style=&quot;margin-left: 0px;margin-top: -2px;&quot;&gt;&lt;span style=&quot;font-size:16.7px;color:#3a414a;&quot;&gt;Client Text&lt;/span&gt;&lt;/span&gt;&lt;/li&gt;&lt;li style=&quot;text-align:center;color:#3a414a;font-size:16.7px;&quot;&gt;&lt;span style=&quot;margin-left: 0px;margin-top: -2px;&quot;&gt;&lt;span style=&quot;font-size:16.7px;color:#3a414a;&quot;&gt;Client Logo&lt;/span&gt;&lt;/span&gt;&lt;/li&gt;&lt;li style=&quot;text-align:center;color:#3a414a;font-size:16.7px;&quot;&gt;&lt;span style=&quot;margin-left: 0px;margin-top: -2px;&quot;&gt;&lt;span style=&quot;font-size:16.7px;color:#3a414a;&quot;&gt;Bullets&lt;/span&gt;&lt;/span&gt;&lt;/li&gt;&lt;li style=&quot;text-align:center;color:#3a414a;font-size:16.7px;&quot;&gt;&lt;span style=&quot;margin-left: 0px;margin-top: -2px;&quot;&gt;&lt;span style=&quot;font-size:16.7px;color:#3a414a;&quot;&gt;Click URL&lt;/span&gt;&lt;/span&gt;&lt;/li&gt;&lt;li style=&quot;text-align:center;color:#3a414a;font-size:16.7px;&quot;&gt;&lt;span style=&quot;margin-left: 0px;margin-top: -2px;&quot;&gt;&lt;span style=&quot;font-size:16.7px;color:#3a414a;&quot;&gt;Conversion URL&lt;/span&gt;&lt;/span&gt;&lt;/li&gt;&lt;li style=&quot;text-align:center;color:#3a414a;font-size:16.7px;&quot;&gt;&lt;span style=&quot;margin-left: 0px;margin-top: -2px;&quot;&gt;&lt;span style=&quot;font-size:16.7px;color:#3a414a;&quot;&gt;Disclaimer text&lt;/span&gt;&lt;/span&gt;&lt;/li&gt;&lt;li style=&quot;text-align:center;color:#3a414a;font-size:16.7px;&quot;&gt;&lt;span style=&quot;margin-left: 0px;margin-top: -2px;&quot;&gt;&lt;span style=&quot;font-size:16.7px;color:#3a414a;&quot;&gt;&lt;span style=&quot;font-size:16.7px;color:#3a414a;font-weight: bold;&quot;&gt;MPO&lt;/span&gt;&lt;/span&gt;&lt;/span&gt;&lt;/li&gt;&lt;li style=&quot;text-align:center;color:#3a414a;font-size:16.7px;&quot;&gt;&lt;span style=&quot;margin-left: 0px;margin-top: -2px;&quot;&gt;&lt;span style=&quot;font-size:16.7px;color:#3a414a;&quot;&gt;Backgound image&lt;/span&gt;&lt;/span&gt;&lt;/li&gt;&lt;li style=&quot;text-align:center;color:#3a414a;font-size:16.7px;&quot;&gt;&lt;span style=&quot;margin-left: 0px;margin-top: -2px;&quot;&gt;&lt;span style=&quot;font-size:16.7px;color:#3a414a;&quot;&gt;Exit/Continue Button&lt;/span&gt;&lt;/span&gt;&lt;/li&gt;&lt;li style=&quot;text-align:center;color:#3a414a;font-size:16.7px;&quot;&gt;&lt;span style=&quot;margin-left: 0px;margin-top: -2px;&quot;&gt;&lt;span style=&quot;font-size:16.7px;color:#3a414a;&quot;&gt;No Thanks button&lt;/span&gt;&lt;/span&gt;&lt;/li&gt;&lt;/ul&gt;" style="strokeColor=none;fillColor=none;whiteSpace=wrap;overflow=block;blockSpacing=1;html=1;fontSize=13;spacing=3.8;strokeOpacity=100;rounded=1;absoluteArcSize=1;arcSize=9;strokeWidth=0.8;" vertex="1" parent="k5fm_F2_kpiR6oeNnVN6-16">
          <mxGeometry x="29.625" width="328.375" height="237" as="geometry" />
        </mxCell>
        <mxCell id="k5fm_F2_kpiR6oeNnVN6-19" value="" style="html=1;overflow=block;blockSpacing=1;whiteSpace=wrap;shape=image;fontSize=13;spacing=0;strokeColor=none;strokeOpacity=100;strokeWidth=0;image=https://images.lucid.app/images/385fffcf-8041-4c6d-a8fd-af87b186ea87/content;imageAspect=0;lucidId=RvtMiUc83g.7;" vertex="1" parent="1">
          <mxGeometry x="149" y="916" width="327" height="198" as="geometry" />
        </mxCell>
        <mxCell id="k5fm_F2_kpiR6oeNnVN6-20" value="Step 4" style="html=1;overflow=block;blockSpacing=1;whiteSpace=wrap;fontSize=16.7;fontColor=#3a414a;fontStyle=1;spacing=3.8;strokeOpacity=0;fillOpacity=0;rounded=1;absoluteArcSize=1;arcSize=9;fillColor=#ffffff;strokeWidth=0.8;lucidId=6vtM61ijFyuT;" vertex="1" parent="1">
          <mxGeometry x="70" y="877" width="180" height="45" as="geometry" />
        </mxCell>
        <mxCell id="k5fm_F2_kpiR6oeNnVN6-21" value="" style="strokeColor=none;fillColor=none;whiteSpace=wrap;fontSize=16.7;fontColor=#3a414a;fontStyle=1;spacingLeft=16.7;spacing=3.8;strokeOpacity=100;rounded=1;absoluteArcSize=1;arcSize=9;strokeWidth=0.8;html=1;" vertex="1" parent="1">
          <mxGeometry x="582" y="916" width="358" height="212" as="geometry" />
        </mxCell>
        <mxCell id="k5fm_F2_kpiR6oeNnVN6-22" value="" style="shape=curlyBracket;rounded=1;flipH=1;whiteSpace=wrap;fontSize=16.7;fontColor=#3a414a;fontStyle=1;spacingLeft=16.7;spacing=3.8;strokeColor=#3a414a;strokeOpacity=100;strokeWidth=0.8;" vertex="1" parent="k5fm_F2_kpiR6oeNnVN6-21">
          <mxGeometry width="26.5" height="212" as="geometry" />
        </mxCell>
        <mxCell id="k5fm_F2_kpiR6oeNnVN6-23" value="&lt;div style=&quot;display: flex; justify-content: center; text-align: center; align-items: baseline; font-size: 0; line-height: 1.25;margin-top: -2px;&quot;&gt;&lt;span&gt;&lt;span style=&quot;font-size:16.7px;color:#3a414a;font-weight: bold;&quot;&gt;Step #4&#xa;&lt;/span&gt;&lt;/span&gt;&lt;/div&gt;&lt;ul style=&quot;margin: 0px; padding-left: 10px;list-style-position: inside; list-style-type:disc&quot;&gt;&lt;li style=&quot;text-align:center;color:#3a414a;font-size:16.7px;&quot;&gt;&lt;span style=&quot;margin-left: 0px;margin-top: -2px;&quot;&gt;&lt;span style=&quot;font-size:16.7px;color:#3a414a;font-weight: bold;&quot;&gt;Kevel-Treasure&lt;/span&gt;&lt;span style=&quot;font-size:16.7px;color:#3a414a;&quot;&gt;&lt;/span&gt;&lt;/span&gt;&lt;/li&gt;&lt;li style=&quot;text-align:center;color:#3a414a;font-size:16.7px;&quot;&gt;&lt;span style=&quot;margin-left: 0px;margin-top: -2px;&quot;&gt;&lt;span style=&quot;font-size:16.7px;color:#3a414a;&quot;&gt;none&lt;/span&gt;&lt;/span&gt;&lt;/li&gt;&lt;li style=&quot;text-align:center;color:#3a414a;font-size:16.7px;&quot;&gt;&lt;span style=&quot;margin-left: 0px;margin-top: -2px;&quot;&gt;&lt;span style=&quot;font-size:16.7px;color:#3a414a;&quot;&gt;&lt;span style=&quot;font-size:16.7px;color:#3a414a;font-weight: bold;&quot;&gt;MPO&lt;/span&gt;&lt;/span&gt;&lt;/span&gt;&lt;/li&gt;&lt;li style=&quot;text-align:center;color:#3a414a;font-size:16.7px;&quot;&gt;&lt;span style=&quot;margin-left: 0px;margin-top: -2px;&quot;&gt;&lt;span style=&quot;font-size:16.7px;color:#3a414a;&quot;&gt;Backgound&lt;/span&gt;&lt;/span&gt;&lt;/li&gt;&lt;li style=&quot;text-align:center;color:#3a414a;font-size:16.7px;&quot;&gt;&lt;span style=&quot;margin-left: 0px;margin-top: -2px;&quot;&gt;&lt;span style=&quot;font-size:16.7px;color:#3a414a;&quot;&gt;Text&lt;/span&gt;&lt;/span&gt;&lt;/li&gt;&lt;li style=&quot;text-align:center;color:#3a414a;font-size:16.7px;&quot;&gt;&lt;span style=&quot;margin-left: 0px;margin-top: -2px;&quot;&gt;&lt;span style=&quot;font-size:16.7px;color:#3a414a;&quot;&gt;Continue Button&lt;/span&gt;&lt;/span&gt;&lt;/li&gt;&lt;li style=&quot;text-align:center;color:#3a414a;font-size:16.7px;&quot;&gt;&lt;span style=&quot;margin-left: 0px;margin-top: -2px;&quot;&gt;&lt;span style=&quot;font-size:16.7px;color:#3a414a;&quot;&gt;Show: Only to Users who already visited (via Kevel logic)&lt;/span&gt;&lt;/span&gt;&lt;/li&gt;&lt;/ul&gt;" style="strokeColor=none;fillColor=none;whiteSpace=wrap;overflow=block;blockSpacing=1;html=1;fontSize=13;spacing=3.8;strokeOpacity=100;rounded=1;absoluteArcSize=1;arcSize=9;strokeWidth=0.8;" vertex="1" parent="k5fm_F2_kpiR6oeNnVN6-21">
          <mxGeometry x="26.5" width="331.5" height="212" as="geometry" />
        </mxCell>
        <mxCell id="k5fm_F2_kpiR6oeNnVN6-24" value="Redirect" style="html=1;overflow=block;blockSpacing=1;whiteSpace=wrap;fontSize=16.7;fontColor=#3a414a;spacing=3.8;strokeColor=#3a414a;strokeOpacity=100;rounded=1;absoluteArcSize=1;arcSize=9;strokeWidth=0.8;lucidId=SztM0K~x-NT0;" vertex="1" parent="1">
          <mxGeometry x="149" y="1241" width="337" height="100" as="geometry" />
        </mxCell>
        <mxCell id="k5fm_F2_kpiR6oeNnVN6-25" value="&lt;div style=&quot;display: flex; justify-content: center; text-align: center; align-items: baseline; font-size: 0; line-height: 1.25;margin-top: -2px;&quot;&gt;&lt;span&gt;&lt;span style=&quot;font-size:16.7px;color:#3a414a;font-weight: bold;&quot;&gt;Step 5 &lt;/span&gt;&lt;span style=&quot;font-size:16.7px;color:#3a414a;font-style: italic;&quot;&gt;(redirect)&lt;/span&gt;&lt;/span&gt;&lt;/div&gt;" style="html=1;overflow=block;blockSpacing=1;whiteSpace=wrap;fontSize=13;spacing=3.8;strokeOpacity=0;fillOpacity=0;rounded=1;absoluteArcSize=1;arcSize=9;fillColor=#ffffff;strokeWidth=0.8;lucidId=.ztMb4i3V2kX;" vertex="1" parent="1">
          <mxGeometry x="98" y="1189" width="180" height="45" as="geometry" />
        </mxCell>
        <mxCell id="k5fm_F2_kpiR6oeNnVN6-26" value="" style="strokeColor=none;fillColor=none;whiteSpace=wrap;fontSize=16.7;fontColor=#3a414a;fontStyle=1;spacingLeft=16.7;spacing=3.8;strokeOpacity=100;rounded=1;absoluteArcSize=1;arcSize=9;strokeWidth=0.8;html=1;" vertex="1" parent="1">
          <mxGeometry x="582" y="1219" width="358" height="173" as="geometry" />
        </mxCell>
        <mxCell id="k5fm_F2_kpiR6oeNnVN6-27" value="" style="shape=curlyBracket;rounded=1;flipH=1;whiteSpace=wrap;fontSize=16.7;fontColor=#3a414a;fontStyle=1;spacingLeft=16.7;spacing=3.8;strokeColor=#3a414a;strokeOpacity=100;strokeWidth=0.8;" vertex="1" parent="k5fm_F2_kpiR6oeNnVN6-26">
          <mxGeometry width="21.625" height="173" as="geometry" />
        </mxCell>
        <mxCell id="k5fm_F2_kpiR6oeNnVN6-28" value="&lt;div style=&quot;display: flex; justify-content: center; text-align: center; align-items: baseline; font-size: 0; line-height: 1.25;margin-top: -2px;&quot;&gt;&lt;span&gt;&lt;span style=&quot;font-size:16.7px;color:#3a414a;font-weight: bold;&quot;&gt;Step #5&#xa;&lt;/span&gt;&lt;/span&gt;&lt;/div&gt;&lt;ul style=&quot;margin: 0px; padding-left: 10px;list-style-position: inside; list-style-type:disc&quot;&gt;&lt;li style=&quot;text-align:center;color:#3a414a;font-size:16.7px;&quot;&gt;&lt;span style=&quot;margin-left: 0px;margin-top: -2px;&quot;&gt;&lt;span style=&quot;font-size:16.7px;color:#3a414a;font-weight: bold;&quot;&gt;Kevel-Treasure&lt;/span&gt;&lt;span style=&quot;font-size:16.7px;color:#3a414a;&quot;&gt;&lt;/span&gt;&lt;/span&gt;&lt;/li&gt;&lt;li style=&quot;text-align:center;color:#3a414a;font-size:16.7px;&quot;&gt;&lt;span style=&quot;margin-left: 0px;margin-top: -2px;&quot;&gt;&lt;span style=&quot;font-size:16.7px;color:#3a414a;&quot;&gt;none&lt;/span&gt;&lt;/span&gt;&lt;/li&gt;&lt;li style=&quot;text-align:center;color:#3a414a;font-size:16.7px;&quot;&gt;&lt;span style=&quot;margin-left: 0px;margin-top: -2px;&quot;&gt;&lt;span style=&quot;font-size:16.7px;color:#3a414a;&quot;&gt;&lt;span style=&quot;font-size:16.7px;color:#3a414a;font-weight: bold;&quot;&gt;MPO&lt;/span&gt;&lt;/span&gt;&lt;/span&gt;&lt;/li&gt;&lt;li style=&quot;text-align:center;color:#3a414a;font-size:16.7px;&quot;&gt;&lt;span style=&quot;margin-left: 0px;margin-top: -2px;&quot;&gt;&lt;span style=&quot;font-size:16.7px;color:#3a414a;&quot;&gt;Redirect to Site that sent&lt;/span&gt;&lt;/span&gt;&lt;/li&gt;&lt;/ul&gt;" style="strokeColor=none;fillColor=none;whiteSpace=wrap;overflow=block;blockSpacing=1;html=1;fontSize=13;spacing=3.8;strokeOpacity=100;rounded=1;absoluteArcSize=1;arcSize=9;strokeWidth=0.8;" vertex="1" parent="k5fm_F2_kpiR6oeNnVN6-26">
          <mxGeometry x="21.625" width="336.375" height="173" as="geometry" />
        </mxCell>
      </root>
    </mxGraphModel>
  </diagram>
  <diagram id="G3JZyEjhCQP036EN2gTJ" name="Kevel Data">
    <mxGraphModel dx="1951" dy="1037" grid="1" gridSize="10" guides="1" tooltips="1" connect="1" arrows="1" fold="1" page="1" pageScale="1" pageWidth="850" pageHeight="1100" math="0" shadow="0">
      <root>
        <mxCell id="0" />
        <mxCell id="1" parent="0" />
        <mxCell id="o30_YXsjat7lBagIvKi2-1" value="Treasure Mania Setup" style="html=1;overflow=block;blockSpacing=1;whiteSpace=wrap;fontSize=21.7;fontColor=#3a414a;fontStyle=1;spacing=3.8;strokeOpacity=0;fillOpacity=0;rounded=1;absoluteArcSize=1;arcSize=9;fillColor=#ffffff;strokeWidth=0.8;lucidId=uvMMSJB6gpb6;" vertex="1" parent="1">
          <mxGeometry x="515" y="11" width="307" height="60" as="geometry" />
        </mxCell>
        <mxCell id="o30_YXsjat7lBagIvKi2-2" value="" style="html=1;overflow=block;blockSpacing=1;whiteSpace=wrap;shape=image;fontSize=13;spacing=0;strokeColor=none;strokeOpacity=100;strokeWidth=0;image=https://images.lucid.app/images/df35bd32-c4fe-4948-aaf8-b62a83ad1eb7/content;imageAspect=0;lucidId=uvMMM~YBkwVi;" vertex="1" parent="1">
          <mxGeometry x="222" y="89" width="355" height="208" as="geometry" />
        </mxCell>
        <mxCell id="o30_YXsjat7lBagIvKi2-3" value="" style="html=1;overflow=block;blockSpacing=1;whiteSpace=wrap;shape=image;fontSize=13;spacing=0;strokeColor=none;strokeOpacity=100;strokeWidth=0;image=https://images.lucid.app/images/1a73e816-e7cb-44b0-9282-de2776a28976/content;imageAspect=0;lucidId=uvMMNbLHn-3j;" vertex="1" parent="1">
          <mxGeometry x="227" y="373" width="350" height="191" as="geometry" />
        </mxCell>
        <mxCell id="o30_YXsjat7lBagIvKi2-4" value="" style="html=1;overflow=block;blockSpacing=1;whiteSpace=wrap;shape=image;fontSize=13;spacing=0;strokeColor=none;strokeOpacity=100;strokeWidth=0;image=https://images.lucid.app/images/afd74d60-bd44-4695-bbba-137e81aa5e69/content;imageAspect=0;lucidId=uvMM01ru6M5d;" vertex="1" parent="1">
          <mxGeometry x="227" y="773" width="351" height="196" as="geometry" />
        </mxCell>
        <mxCell id="o30_YXsjat7lBagIvKi2-5" value="Step 1" style="html=1;overflow=block;blockSpacing=1;whiteSpace=wrap;fontSize=16.7;fontColor=#3a414a;fontStyle=1;spacing=3.8;strokeOpacity=0;fillOpacity=0;rounded=1;absoluteArcSize=1;arcSize=9;fillColor=#ffffff;strokeWidth=0.8;lucidId=uvMMbch8pIlB;" vertex="1" parent="1">
          <mxGeometry x="154" y="55" width="180" height="45" as="geometry" />
        </mxCell>
        <mxCell id="o30_YXsjat7lBagIvKi2-6" value="Step 2" style="html=1;overflow=block;blockSpacing=1;whiteSpace=wrap;fontSize=16.7;fontColor=#3a414a;fontStyle=1;spacing=3.8;strokeOpacity=0;fillOpacity=0;rounded=1;absoluteArcSize=1;arcSize=9;fillColor=#ffffff;strokeWidth=0.8;lucidId=uvMMA85Siq2-;" vertex="1" parent="1">
          <mxGeometry x="154" y="332" width="180" height="45" as="geometry" />
        </mxCell>
        <mxCell id="o30_YXsjat7lBagIvKi2-7" value="Step 3" style="html=1;overflow=block;blockSpacing=1;whiteSpace=wrap;fontSize=16.7;fontColor=#3a414a;fontStyle=1;spacing=3.8;strokeOpacity=0;fillOpacity=0;rounded=1;absoluteArcSize=1;arcSize=9;fillColor=#ffffff;strokeWidth=0.8;lucidId=uvMMXkYieUrv;" vertex="1" parent="1">
          <mxGeometry x="154" y="733" width="180" height="45" as="geometry" />
        </mxCell>
        <mxCell id="o30_YXsjat7lBagIvKi2-8" value="" style="strokeColor=none;fillColor=none;whiteSpace=wrap;fontSize=16.7;fontColor=#3a414a;fontStyle=1;spacingLeft=16.7;spacing=3.8;strokeOpacity=100;rounded=1;absoluteArcSize=1;arcSize=9;strokeWidth=0.8;html=1;" vertex="1" parent="1">
          <mxGeometry x="672" y="95" width="358" height="195" as="geometry" />
        </mxCell>
        <mxCell id="o30_YXsjat7lBagIvKi2-9" value="" style="shape=curlyBracket;rounded=1;flipH=1;whiteSpace=wrap;fontSize=16.7;fontColor=#3a414a;fontStyle=1;spacingLeft=16.7;spacing=3.8;strokeColor=#3a414a;strokeOpacity=100;strokeWidth=0.8;" vertex="1" parent="o30_YXsjat7lBagIvKi2-8">
          <mxGeometry width="24.375" height="195" as="geometry" />
        </mxCell>
        <mxCell id="o30_YXsjat7lBagIvKi2-10" value="&lt;div style=&quot;display: flex; justify-content: center; text-align: center; align-items: baseline; font-size: 0; line-height: 1.25;margin-top: -2px;&quot;&gt;&lt;span&gt;&lt;span style=&quot;font-size:16.7px;color:#3a414a;font-weight: bold;&quot;&gt;Step #1&#xa;&lt;/span&gt;&lt;/span&gt;&lt;/div&gt;&lt;ul style=&quot;margin: 0px; padding-left: 10px;list-style-position: inside; list-style-type:disc&quot;&gt;&lt;li style=&quot;text-align:center;color:#3a414a;font-size:15px;&quot;&gt;&lt;span style=&quot;margin-left: 0px;margin-top: -2px;&quot;&gt;&lt;span style=&quot;font-size:13px;color:#3a414a;font-weight: bold;&quot;&gt;&lt;span style=&quot;font-size:15px;color:#3a414a;font-weight: bold;&quot;&gt;Kevel-Data&lt;/span&gt;&lt;/span&gt;&lt;/span&gt;&lt;/li&gt;&lt;li style=&quot;text-align:center;color:#3a414a;font-size:15px;&quot;&gt;&lt;span style=&quot;margin-left: 0px;margin-top: -2px;&quot;&gt;&lt;span style=&quot;font-size:15px;color:#3a414a;&quot;&gt;Pixel Fire: {{d:kd_5_impression_url}}&lt;/span&gt;&lt;/span&gt;&lt;/li&gt;&lt;li style=&quot;text-align:center;color:#3a414a;font-size:15px;&quot;&gt;&lt;span style=&quot;margin-left: 0px;margin-top: -2px;&quot;&gt;&lt;span style=&quot;font-size:15px;color:#3a414a;&quot;&gt;Partner Logo: {{d:kd_5_partner_logo}}&lt;/span&gt;&lt;/span&gt;&lt;/li&gt;&lt;li style=&quot;text-align:center;color:#3a414a;font-size:15px;&quot;&gt;&lt;span style=&quot;margin-left: 0px;margin-top: -2px;&quot;&gt;&lt;span style=&quot;font-size:15px;color:#3a414a;&quot;&gt;Disclaimer Text: {{d:kd_5_disclosure}}&lt;/span&gt;&lt;/span&gt;&lt;/li&gt;&lt;/ul&gt;" style="strokeColor=none;fillColor=none;whiteSpace=wrap;overflow=block;blockSpacing=1;html=1;fontSize=13;spacing=3.8;strokeOpacity=100;rounded=1;absoluteArcSize=1;arcSize=9;strokeWidth=0.8;" vertex="1" parent="o30_YXsjat7lBagIvKi2-8">
          <mxGeometry x="24.375" width="333.625" height="195" as="geometry" />
        </mxCell>
        <mxCell id="o30_YXsjat7lBagIvKi2-11" value="" style="strokeColor=none;fillColor=none;whiteSpace=wrap;fontSize=16.7;fontColor=#3a414a;fontStyle=1;spacingLeft=16.7;spacing=3.8;strokeOpacity=100;rounded=1;absoluteArcSize=1;arcSize=9;strokeWidth=0.8;html=1;" vertex="1" parent="1">
          <mxGeometry x="672" y="369" width="449" height="352" as="geometry" />
        </mxCell>
        <mxCell id="o30_YXsjat7lBagIvKi2-12" value="" style="shape=curlyBracket;rounded=1;flipH=1;whiteSpace=wrap;fontSize=16.7;fontColor=#3a414a;fontStyle=1;spacingLeft=16.7;spacing=3.8;strokeColor=#3a414a;strokeOpacity=100;strokeWidth=0.8;" vertex="1" parent="o30_YXsjat7lBagIvKi2-11">
          <mxGeometry width="44" height="352" as="geometry" />
        </mxCell>
        <mxCell id="o30_YXsjat7lBagIvKi2-13" value="&lt;div style=&quot;display: flex; justify-content: center; text-align: center; align-items: baseline; font-size: 0; line-height: 1.25;margin-top: -2px;&quot;&gt;&lt;span&gt;&lt;span style=&quot;font-size:16.7px;color:#3a414a;font-weight: bold;&quot;&gt;Step #2&#xa;&lt;/span&gt;&lt;/span&gt;&lt;/div&gt;&lt;ul style=&quot;margin: 0px; padding-left: 10px;list-style-position: inside; list-style-type:disc&quot;&gt;&lt;li style=&quot;text-align:center;color:#3a414a;font-size:15px;&quot;&gt;&lt;span style=&quot;margin-left: 0px;margin-top: -2px;&quot;&gt;&lt;span style=&quot;font-size:13px;color:#3a414a;font-weight: bold;&quot;&gt;&lt;span style=&quot;font-size:15px;color:#3a414a;font-weight: bold;&quot;&gt;Kevel-Data&lt;/span&gt;&lt;/span&gt;&lt;/span&gt;&lt;/li&gt;&lt;li style=&quot;text-align:center;color:#3a414a;font-size:13.3px;&quot;&gt;&lt;span style=&quot;margin-left: 0px;margin-top: -2px;&quot;&gt;&lt;span style=&quot;font-size:13px;color:#3a414a;&quot;&gt;&lt;span style=&quot;font-size:13.3px;color:#3a414a;&quot;&gt;Prize Page Header: {{d:kd_5_prize_page_header}}&lt;/span&gt;&lt;/span&gt;&lt;/span&gt;&lt;/li&gt;&lt;li style=&quot;text-align:center;color:#3a414a;font-size:13.3px;&quot;&gt;&lt;span style=&quot;margin-left: 0px;margin-top: -2px;&quot;&gt;&lt;span style=&quot;font-size:13.3px;color:#3a414a;&quot;&gt;Prize Page Description: {{d:kd_5_&lt;/span&gt;&lt;span style=&quot;font-size:14.3px;color:#606060;&quot;&gt;prize_page_desc}}&lt;/span&gt;&lt;/span&gt;&lt;/li&gt;&lt;li style=&quot;text-align:center;color:#606060;font-size:14.3px;&quot;&gt;&lt;span style=&quot;margin-left: 0px;margin-top: -2px;&quot;&gt;&lt;span style=&quot;font-size:14.3px;color:#606060;&quot;&gt;Prize 1:&lt;/span&gt;&lt;/span&gt;&lt;/li&gt;&lt;li style=&quot;text-align:center;color:#606060;font-size:14.3px;&quot;&gt;&lt;span style=&quot;margin-left: 0px;margin-top: -2px;&quot;&gt;&lt;span style=&quot;font-size:14.3px;color:#606060;&quot;&gt;Image: {{&lt;/span&gt;&lt;span style=&quot;font-size:13.3px;color:#3a414a;&quot;&gt;d:kd_5_&lt;/span&gt;&lt;span style=&quot;font-size:14.3px;color:#606060;&quot;&gt;prize_1_img}}&lt;/span&gt;&lt;/span&gt;&lt;/li&gt;&lt;li style=&quot;text-align:center;color:#606060;font-size:14.3px;&quot;&gt;&lt;span style=&quot;margin-left: 0px;margin-top: -2px;&quot;&gt;&lt;span style=&quot;font-size:14.3px;color:#606060;&quot;&gt;Value: {{&lt;/span&gt;&lt;span style=&quot;font-size:13.3px;color:#3a414a;&quot;&gt;d:kd_5_&lt;/span&gt;&lt;span style=&quot;font-size:14.3px;color:#606060;&quot;&gt;prize_1_value}}&lt;/span&gt;&lt;/span&gt;&lt;/li&gt;&lt;li style=&quot;text-align:center;color:#606060;font-size:14.3px;&quot;&gt;&lt;span style=&quot;margin-left: 0px;margin-top: -2px;&quot;&gt;&lt;span style=&quot;font-size:14.3px;color:#606060;&quot;&gt;Title: {{&lt;/span&gt;&lt;span style=&quot;font-size:13.3px;color:#3a414a;&quot;&gt;d:kd_5_&lt;/span&gt;&lt;span style=&quot;font-size:14.3px;color:#606060;&quot;&gt;prize_1_title}}&lt;/span&gt;&lt;/span&gt;&lt;/li&gt;&lt;li style=&quot;text-align:center;color:#606060;font-size:14.3px;&quot;&gt;&lt;span style=&quot;margin-left: 0px;margin-top: -2px;&quot;&gt;&lt;span style=&quot;font-size:14.3px;color:#606060;&quot;&gt;Description: {{&lt;/span&gt;&lt;span style=&quot;font-size:13.3px;color:#3a414a;&quot;&gt;d:kd_5_&lt;/span&gt;&lt;span style=&quot;font-size:14.3px;color:#606060;&quot;&gt;prize_1_desc}}&lt;/span&gt;&lt;/span&gt;&lt;/li&gt;&lt;li style=&quot;text-align:center;color:#606060;font-size:14.3px;&quot;&gt;&lt;span style=&quot;margin-left: 0px;margin-top: -2px;&quot;&gt;&lt;span style=&quot;font-size:14.3px;color:#606060;&quot;&gt;Prize 2:&lt;/span&gt;&lt;/span&gt;&lt;/li&gt;&lt;li style=&quot;text-align:center;color:#606060;font-size:14.3px;&quot;&gt;&lt;span style=&quot;margin-left: 0px;margin-top: -2px;&quot;&gt;&lt;span style=&quot;font-size:14.3px;color:#606060;&quot;&gt;Image: {{&lt;/span&gt;&lt;span style=&quot;font-size:13.3px;color:#3a414a;&quot;&gt;d:kd_5_&lt;/span&gt;&lt;span style=&quot;font-size:14.3px;color:#606060;&quot;&gt;prize_2_img}}&lt;/span&gt;&lt;/span&gt;&lt;/li&gt;&lt;li style=&quot;text-align:center;color:#606060;font-size:14.3px;&quot;&gt;&lt;span style=&quot;margin-left: 0px;margin-top: -2px;&quot;&gt;&lt;span style=&quot;font-size:14.3px;color:#606060;&quot;&gt;Value: {{&lt;/span&gt;&lt;span style=&quot;font-size:13.3px;color:#3a414a;&quot;&gt;d:kd_5_&lt;/span&gt;&lt;span style=&quot;font-size:14.3px;color:#606060;&quot;&gt;prize_2_value}}&lt;/span&gt;&lt;/span&gt;&lt;/li&gt;&lt;li style=&quot;text-align:center;color:#606060;font-size:14.3px;&quot;&gt;&lt;span style=&quot;margin-left: 0px;margin-top: -2px;&quot;&gt;&lt;span style=&quot;font-size:14.3px;color:#606060;&quot;&gt;Title: {{&lt;/span&gt;&lt;span style=&quot;font-size:13.3px;color:#3a414a;&quot;&gt;d:kd_5_&lt;/span&gt;&lt;span style=&quot;font-size:14.3px;color:#606060;&quot;&gt;prize_2_title}}&lt;/span&gt;&lt;/span&gt;&lt;/li&gt;&lt;li style=&quot;text-align:center;color:#606060;font-size:14.3px;&quot;&gt;&lt;span style=&quot;margin-left: 0px;margin-top: -2px;&quot;&gt;&lt;span style=&quot;font-size:14.3px;color:#606060;&quot;&gt;Description: {{&lt;/span&gt;&lt;span style=&quot;font-size:13.3px;color:#3a414a;&quot;&gt;d:kd_5_&lt;/span&gt;&lt;span style=&quot;font-size:14.3px;color:#606060;&quot;&gt;prize_2_desc}}&lt;/span&gt;&lt;/span&gt;&lt;/li&gt;&lt;li style=&quot;text-align:center;color:#606060;font-size:14.3px;&quot;&gt;&lt;span style=&quot;margin-left: 0px;margin-top: -2px;&quot;&gt;&lt;span style=&quot;font-size:14.3px;color:#606060;&quot;&gt;Prize 3:&lt;/span&gt;&lt;/span&gt;&lt;/li&gt;&lt;li style=&quot;text-align:center;color:#606060;font-size:14.3px;&quot;&gt;&lt;span style=&quot;margin-left: 0px;margin-top: -2px;&quot;&gt;&lt;span style=&quot;font-size:14.3px;color:#606060;&quot;&gt;Image: {{&lt;/span&gt;&lt;span style=&quot;font-size:13.3px;color:#3a414a;&quot;&gt;d:kd_5_&lt;/span&gt;&lt;span style=&quot;font-size:14.3px;color:#606060;&quot;&gt;prize_3_img}}&lt;/span&gt;&lt;/span&gt;&lt;/li&gt;&lt;li style=&quot;text-align:center;color:#606060;font-size:14.3px;&quot;&gt;&lt;span style=&quot;margin-left: 0px;margin-top: -2px;&quot;&gt;&lt;span style=&quot;font-size:14.3px;color:#606060;&quot;&gt;Value: {{&lt;/span&gt;&lt;span style=&quot;font-size:13.3px;color:#3a414a;&quot;&gt;d:kd_5_&lt;/span&gt;&lt;span style=&quot;font-size:14.3px;color:#606060;&quot;&gt;prize_3_value}}&lt;/span&gt;&lt;/span&gt;&lt;/li&gt;&lt;li style=&quot;text-align:center;color:#606060;font-size:14.3px;&quot;&gt;&lt;span style=&quot;margin-left: 0px;margin-top: -2px;&quot;&gt;&lt;span style=&quot;font-size:14.3px;color:#606060;&quot;&gt;Title: {{&lt;/span&gt;&lt;span style=&quot;font-size:13.3px;color:#3a414a;&quot;&gt;d:kd_5_&lt;/span&gt;&lt;span style=&quot;font-size:14.3px;color:#606060;&quot;&gt;prize_3_title}}&lt;/span&gt;&lt;/span&gt;&lt;/li&gt;&lt;li style=&quot;text-align:center;color:#606060;font-size:14.3px;&quot;&gt;&lt;span style=&quot;margin-left: 0px;margin-top: -2px;&quot;&gt;&lt;span style=&quot;font-size:14.3px;color:#606060;&quot;&gt;Description: {{&lt;/span&gt;&lt;span style=&quot;font-size:13.3px;color:#3a414a;&quot;&gt;d:kd_5_&lt;/span&gt;&lt;span style=&quot;font-size:14.3px;color:#606060;&quot;&gt;prize_3_desc}}&lt;/span&gt;&lt;/span&gt;&lt;/li&gt;&lt;/ul&gt;" style="strokeColor=none;fillColor=none;whiteSpace=wrap;overflow=block;blockSpacing=1;html=1;fontSize=13;spacing=3.8;strokeOpacity=100;rounded=1;absoluteArcSize=1;arcSize=9;strokeWidth=0.8;" vertex="1" parent="o30_YXsjat7lBagIvKi2-11">
          <mxGeometry x="44" width="405" height="352" as="geometry" />
        </mxCell>
        <mxCell id="o30_YXsjat7lBagIvKi2-14" value="" style="strokeColor=none;fillColor=none;whiteSpace=wrap;fontSize=16.7;fontColor=#3a414a;fontStyle=1;spacingLeft=16.7;spacing=3.8;strokeOpacity=100;rounded=1;absoluteArcSize=1;arcSize=9;strokeWidth=0.8;html=1;" vertex="1" parent="1">
          <mxGeometry x="672" y="763" width="358" height="266" as="geometry" />
        </mxCell>
        <mxCell id="o30_YXsjat7lBagIvKi2-15" value="" style="shape=curlyBracket;rounded=1;flipH=1;whiteSpace=wrap;fontSize=16.7;fontColor=#3a414a;fontStyle=1;spacingLeft=16.7;spacing=3.8;strokeColor=#3a414a;strokeOpacity=100;strokeWidth=0.8;" vertex="1" parent="o30_YXsjat7lBagIvKi2-14">
          <mxGeometry width="33.25" height="266" as="geometry" />
        </mxCell>
        <mxCell id="o30_YXsjat7lBagIvKi2-16" value="&lt;div style=&quot;display: flex; justify-content: center; text-align: center; align-items: baseline; font-size: 0; line-height: 1.25;margin-top: -2px;&quot;&gt;&lt;span&gt;&lt;span style=&quot;font-size:16.7px;color:#3a414a;font-weight: bold;&quot;&gt;Step #3&#xa;&lt;/span&gt;&lt;/span&gt;&lt;/div&gt;&lt;ul style=&quot;margin: 0px; padding-left: 10px;list-style-position: inside; list-style-type:disc&quot;&gt;&lt;li style=&quot;text-align:center;color:#3a414a;font-size:15px;&quot;&gt;&lt;span style=&quot;margin-left: 0px;margin-top: -2px;&quot;&gt;&lt;span style=&quot;font-size:13px;color:#3a414a;font-weight: bold;&quot;&gt;&lt;span style=&quot;font-size:15px;color:#3a414a;font-weight: bold;&quot;&gt;Kevel-Data&lt;/span&gt;&lt;/span&gt;&lt;/span&gt;&lt;/li&gt;&lt;li style=&quot;text-align:center;color:#3a414a;font-size:15px;&quot;&gt;&lt;span style=&quot;margin-left: 0px;margin-top: -2px;&quot;&gt;&lt;span style=&quot;font-size:15px;color:#3a414a;&quot;&gt;Partner Name: {{&lt;/span&gt;&lt;span style=&quot;font-size:13.3px;color:#3a414a;&quot;&gt;d:kd_5_&lt;/span&gt;&lt;span style=&quot;font-size:15px;color:#3a414a;&quot;&gt;partner_name}}&lt;/span&gt;&lt;/span&gt;&lt;/li&gt;&lt;li style=&quot;text-align:center;color:#3a414a;font-size:15px;&quot;&gt;&lt;span style=&quot;margin-left: 0px;margin-top: -2px;&quot;&gt;&lt;span style=&quot;font-size:15px;color:#3a414a;&quot;&gt;Partner Logo: {{&lt;/span&gt;&lt;span style=&quot;font-size:13.3px;color:#3a414a;&quot;&gt;d:kd_5_&lt;/span&gt;&lt;span style=&quot;font-size:15px;color:#3a414a;&quot;&gt;partner_logo}}&lt;/span&gt;&lt;/span&gt;&lt;/li&gt;&lt;li style=&quot;text-align:center;color:#3a414a;font-size:15px;&quot;&gt;&lt;span style=&quot;margin-left: 0px;margin-top: -2px;&quot;&gt;&lt;span style=&quot;font-size:15px;color:#3a414a;&quot;&gt;Partner Bullets:&lt;/span&gt;&lt;/span&gt;&lt;/li&gt;&lt;li style=&quot;text-align:center;color:#3a414a;font-size:15px;&quot;&gt;&lt;span style=&quot;margin-left: 0px;margin-top: -2px;&quot;&gt;&lt;span style=&quot;font-size:15px;color:#3a414a;&quot;&gt;1: {{&lt;/span&gt;&lt;span style=&quot;font-size:13.3px;color:#3a414a;&quot;&gt;d:kd_5_&lt;/span&gt;&lt;span style=&quot;font-size:15px;color:#3a414a;&quot;&gt;bullet_1}}&lt;/span&gt;&lt;/span&gt;&lt;/li&gt;&lt;li style=&quot;text-align:center;color:#3a414a;font-size:15px;&quot;&gt;&lt;span style=&quot;margin-left: 0px;margin-top: -2px;&quot;&gt;&lt;span style=&quot;font-size:15px;color:#3a414a;&quot;&gt;2: {{&lt;/span&gt;&lt;span style=&quot;font-size:13.3px;color:#3a414a;&quot;&gt;d:kd_5_&lt;/span&gt;&lt;span style=&quot;font-size:15px;color:#3a414a;&quot;&gt;bullet_2}}&lt;/span&gt;&lt;/span&gt;&lt;/li&gt;&lt;li style=&quot;text-align:center;color:#3a414a;font-size:15px;&quot;&gt;&lt;span style=&quot;margin-left: 0px;margin-top: -2px;&quot;&gt;&lt;span style=&quot;font-size:15px;color:#3a414a;&quot;&gt;3: {{&lt;/span&gt;&lt;span style=&quot;font-size:13.3px;color:#3a414a;&quot;&gt;d:kd_5_&lt;/span&gt;&lt;span style=&quot;font-size:15px;color:#3a414a;&quot;&gt;bullet_3}}&lt;/span&gt;&lt;/span&gt;&lt;/li&gt;&lt;li style=&quot;text-align:center;color:#3a414a;font-size:15px;&quot;&gt;&lt;span style=&quot;margin-left: 0px;margin-top: -2px;&quot;&gt;&lt;span style=&quot;font-size:15px;color:#3a414a;&quot;&gt;4: {{&lt;/span&gt;&lt;span style=&quot;font-size:13.3px;color:#3a414a;&quot;&gt;d:kd_5_&lt;/span&gt;&lt;span style=&quot;font-size:15px;color:#3a414a;&quot;&gt;bullet_4}}&lt;/span&gt;&lt;/span&gt;&lt;/li&gt;&lt;li style=&quot;text-align:center;color:#3a414a;font-size:15px;&quot;&gt;&lt;span style=&quot;margin-left: 0px;margin-top: -2px;&quot;&gt;&lt;span style=&quot;font-size:15px;color:#3a414a;&quot;&gt;Button Text: {{&lt;/span&gt;&lt;span style=&quot;font-size:13.3px;color:#3a414a;&quot;&gt;d:kd_5_&lt;/span&gt;&lt;span style=&quot;font-size:15px;color:#3a414a;&quot;&gt;button_text}}&lt;/span&gt;&lt;/span&gt;&lt;/li&gt;&lt;li style=&quot;text-align:center;color:#3a414a;font-size:15px;&quot;&gt;&lt;span style=&quot;margin-left: 0px;margin-top: -2px;&quot;&gt;&lt;span style=&quot;font-size:15px;color:#3a414a;&quot;&gt;Click URL: {{&lt;/span&gt;&lt;span style=&quot;font-size:13.3px;color:#3a414a;&quot;&gt;d:kd_5_&lt;/span&gt;&lt;span style=&quot;font-size:15px;color:#3a414a;&quot;&gt;click_url}}&lt;/span&gt;&lt;/span&gt;&lt;/li&gt;&lt;li style=&quot;text-align:center;color:#3a414a;font-size:15px;&quot;&gt;&lt;span style=&quot;margin-left: 0px;margin-top: -2px;&quot;&gt;&lt;span style=&quot;font-size:15px;color:#3a414a;&quot;&gt;Conversion URL: {{&lt;/span&gt;&lt;span style=&quot;font-size:13.3px;color:#3a414a;&quot;&gt;d:kd_5_&lt;/span&gt;&lt;span style=&quot;font-size:15px;color:#3a414a;&quot;&gt;conversion_url}}&lt;/span&gt;&lt;/span&gt;&lt;/li&gt;&lt;li style=&quot;text-align:center;color:#3a414a;font-size:15px;&quot;&gt;&lt;span style=&quot;margin-left: 0px;margin-top: -2px;&quot;&gt;&lt;span style=&quot;font-size:15px;color:#3a414a;&quot;&gt;Disclaimer Text: {{&lt;/span&gt;&lt;span style=&quot;font-size:13.3px;color:#3a414a;&quot;&gt;d:kd_5_&lt;/span&gt;&lt;span style=&quot;font-size:15px;color:#3a414a;&quot;&gt;disclosure}}&lt;/span&gt;&lt;/span&gt;&lt;/li&gt;&lt;/ul&gt;" style="strokeColor=none;fillColor=none;whiteSpace=wrap;overflow=block;blockSpacing=1;html=1;fontSize=13;spacing=3.8;strokeOpacity=100;rounded=1;absoluteArcSize=1;arcSize=9;strokeWidth=0.8;" vertex="1" parent="o30_YXsjat7lBagIvKi2-14">
          <mxGeometry x="33.25" width="324.75" height="266" as="geometry" />
        </mxCell>
      </root>
    </mxGraphModel>
  </diagram>
  <diagram id="Hj2reCwtMN6vV_a07ACv" name="Flow">
    <mxGraphModel dx="1951" dy="1037" grid="1" gridSize="10" guides="1" tooltips="1" connect="1" arrows="1" fold="1" page="1" pageScale="1" pageWidth="850" pageHeight="1100" math="0" shadow="0">
      <root>
        <mxCell id="0" />
        <mxCell id="1" parent="0" />
        <mxCell id="JijkfdTZ88voyFKU3NAo-1" value="MPO" style="html=1;overflow=block;blockSpacing=1;whiteSpace=wrap;fontSize=16.7;fontColor=#3a414a;fontStyle=1;align=left;spacing=9;verticalAlign=top;strokeColor=#3a414a;strokeOpacity=100;fillOpacity=100;rounded=1;absoluteArcSize=1;arcSize=9;fillColor=#cfe4ff;strokeWidth=0.8;lucidId=-HtMQZDr9qXX;" vertex="1" parent="1">
          <mxGeometry x="219" y="249" width="932" height="687" as="geometry" />
        </mxCell>
        <mxCell id="JijkfdTZ88voyFKU3NAo-2" value="Load Kevel Data" style="html=1;overflow=block;blockSpacing=1;whiteSpace=wrap;fontSize=16.7;fontColor=#3a414a;spacing=3.8;strokeColor=#3a414a;strokeOpacity=100;rounded=1;absoluteArcSize=1;arcSize=9;strokeWidth=0.8;lucidId=yutMtePpiiHr;" vertex="1" parent="1">
          <mxGeometry x="248" y="301" width="148" height="45" as="geometry" />
        </mxCell>
        <mxCell id="JijkfdTZ88voyFKU3NAo-3" value="" style="html=1;jettySize=18;whiteSpace=wrap;fontSize=13;strokeColor=#3a414a;strokeOpacity=100;strokeWidth=0.8;rounded=1;arcSize=12;edgeStyle=orthogonalEdgeStyle;startArrow=none;endArrow=block;endFill=1;exitX=1.003;exitY=0.5;exitPerimeter=0;entryX=0.012;entryY=0.5;entryPerimeter=0;lucidId=NutMafdZSoS1;" edge="1" parent="1" source="JijkfdTZ88voyFKU3NAo-2" target="JijkfdTZ88voyFKU3NAo-4">
          <mxGeometry width="100" height="100" relative="1" as="geometry">
            <Array as="points" />
          </mxGeometry>
        </mxCell>
        <mxCell id="JijkfdTZ88voyFKU3NAo-4" value="Kevel Data?" style="html=1;overflow=block;blockSpacing=1;whiteSpace=wrap;rhombus;fontSize=16.7;fontColor=#3a414a;fontStyle=3;spacing=3.8;strokeColor=#3a414a;strokeOpacity=100;rounded=1;absoluteArcSize=1;arcSize=9;strokeWidth=0.8;lucidId=VutMzgq3bwK_;" vertex="1" parent="1">
          <mxGeometry x="450" y="261" width="143" height="126" as="geometry" />
        </mxCell>
        <mxCell id="JijkfdTZ88voyFKU3NAo-5" value="" style="html=1;jettySize=18;whiteSpace=wrap;fontSize=13.3;fontColor=#333333;fontStyle=1;strokeColor=#3a414a;strokeOpacity=100;strokeWidth=0.8;rounded=1;arcSize=12;edgeStyle=orthogonalEdgeStyle;startArrow=none;endArrow=block;endFill=1;exitX=0.988;exitY=0.5;exitPerimeter=0;entryX=-0.003;entryY=0.5;entryPerimeter=0;lucidId=mCtMJXaEcw4U;" edge="1" parent="1" source="JijkfdTZ88voyFKU3NAo-4" target="JijkfdTZ88voyFKU3NAo-9">
          <mxGeometry width="100" height="100" relative="1" as="geometry">
            <Array as="points" />
          </mxGeometry>
        </mxCell>
        <mxCell id="JijkfdTZ88voyFKU3NAo-6" value="Yes" style="text;html=1;resizable=0;labelBackgroundColor=default;align=center;verticalAlign=middle;fontStyle=1;fontColor=#333333;fontSize=13.3;" vertex="1" parent="JijkfdTZ88voyFKU3NAo-5">
          <mxGeometry relative="1" as="geometry" />
        </mxCell>
        <mxCell id="JijkfdTZ88voyFKU3NAo-7" value="" style="html=1;jettySize=18;whiteSpace=wrap;fontSize=13.3;fontColor=#333333;fontStyle=1;strokeColor=#3a414a;strokeOpacity=100;strokeWidth=0.8;rounded=1;arcSize=12;edgeStyle=orthogonalEdgeStyle;startArrow=none;endArrow=block;endFill=1;exitX=0.5;exitY=0.989;exitPerimeter=0;entryX=0.5;entryY=-0.004;entryPerimeter=0;lucidId=pCtMjXXnWQaQ;" edge="1" parent="1" source="JijkfdTZ88voyFKU3NAo-4" target="JijkfdTZ88voyFKU3NAo-24">
          <mxGeometry width="100" height="100" relative="1" as="geometry">
            <Array as="points" />
          </mxGeometry>
        </mxCell>
        <mxCell id="JijkfdTZ88voyFKU3NAo-8" value="No" style="text;html=1;resizable=0;labelBackgroundColor=default;align=center;verticalAlign=middle;fontStyle=1;fontColor=#333333;fontSize=13.3;" vertex="1" parent="JijkfdTZ88voyFKU3NAo-7">
          <mxGeometry relative="1" as="geometry" />
        </mxCell>
        <mxCell id="JijkfdTZ88voyFKU3NAo-9" value="Step 1" style="html=1;overflow=block;blockSpacing=1;whiteSpace=wrap;fontSize=16.7;fontColor=#3a414a;fontStyle=1;spacing=9;strokeColor=#3a414a;strokeOpacity=100;rounded=1;absoluteArcSize=1;arcSize=9;strokeWidth=0.8;lucidId=vCtMm0DHZ~MB;" vertex="1" parent="1">
          <mxGeometry x="700" y="279" width="120" height="90" as="geometry" />
        </mxCell>
        <mxCell id="JijkfdTZ88voyFKU3NAo-10" value="" style="html=1;jettySize=18;whiteSpace=wrap;fontSize=13;strokeColor=#3a414a;strokeOpacity=100;strokeWidth=0.8;rounded=1;arcSize=12;edgeStyle=orthogonalEdgeStyle;startArrow=none;endArrow=block;endFill=1;exitX=1.003;exitY=0.5;exitPerimeter=0;entryX=-0.003;entryY=0.5;entryPerimeter=0;lucidId=OCtMXnPouJ1Y;" edge="1" parent="1" source="JijkfdTZ88voyFKU3NAo-9" target="JijkfdTZ88voyFKU3NAo-11">
          <mxGeometry width="100" height="100" relative="1" as="geometry">
            <Array as="points" />
          </mxGeometry>
        </mxCell>
        <mxCell id="JijkfdTZ88voyFKU3NAo-11" value="Fire Pixel&#xa;(Impression)" style="html=1;overflow=block;blockSpacing=1;whiteSpace=wrap;shape=tape;size=0.2;fontSize=16.7;fontColor=#3a414a;spacing=3.8;strokeColor=#3a414a;strokeOpacity=100;rounded=1;absoluteArcSize=1;arcSize=9;strokeWidth=0.8;lucidId=UCtMrTtkynhF;" vertex="1" parent="1">
          <mxGeometry x="876" y="279" width="120" height="90" as="geometry" />
        </mxCell>
        <mxCell id="JijkfdTZ88voyFKU3NAo-12" value="" style="html=1;jettySize=18;whiteSpace=wrap;fontSize=13;strokeColor=#3a414a;strokeOpacity=100;strokeWidth=0.8;rounded=1;arcSize=12;edgeStyle=orthogonalEdgeStyle;startArrow=none;endArrow=block;endFill=1;exitX=0.5;exitY=1.004;exitPerimeter=0;entryX=0.5;entryY=-0.004;entryPerimeter=0;lucidId=5CtM8SbXa3w-;" edge="1" parent="1" source="JijkfdTZ88voyFKU3NAo-9" target="JijkfdTZ88voyFKU3NAo-14">
          <mxGeometry width="100" height="100" relative="1" as="geometry">
            <Array as="points" />
          </mxGeometry>
        </mxCell>
        <mxCell id="JijkfdTZ88voyFKU3NAo-13" value="On Continue" style="text;html=1;resizable=0;labelBackgroundColor=default;align=center;verticalAlign=middle;fontStyle=1;fontColor=#333333;fontSize=13.3;" vertex="1" parent="JijkfdTZ88voyFKU3NAo-12">
          <mxGeometry relative="1" as="geometry" />
        </mxCell>
        <mxCell id="JijkfdTZ88voyFKU3NAo-14" value="Step 2" style="html=1;overflow=block;blockSpacing=1;whiteSpace=wrap;fontSize=16.7;fontColor=#3a414a;fontStyle=1;spacing=9;strokeColor=#3a414a;strokeOpacity=100;rounded=1;absoluteArcSize=1;arcSize=9;strokeWidth=0.8;lucidId=bDtM__1mklDq;" vertex="1" parent="1">
          <mxGeometry x="700" y="451" width="120" height="90" as="geometry" />
        </mxCell>
        <mxCell id="JijkfdTZ88voyFKU3NAo-15" value="" style="html=1;jettySize=18;whiteSpace=wrap;fontSize=13;strokeColor=#3a414a;strokeOpacity=100;strokeWidth=0.8;rounded=1;arcSize=12;edgeStyle=orthogonalEdgeStyle;startArrow=none;endArrow=block;endFill=1;exitX=0.5;exitY=1.004;exitPerimeter=0;entryX=0.5;entryY=-0.004;entryPerimeter=0;lucidId=mDtMjd9.jYMk;" edge="1" parent="1" source="JijkfdTZ88voyFKU3NAo-14" target="JijkfdTZ88voyFKU3NAo-17">
          <mxGeometry width="100" height="100" relative="1" as="geometry">
            <Array as="points" />
          </mxGeometry>
        </mxCell>
        <mxCell id="JijkfdTZ88voyFKU3NAo-16" value="Auto Continue" style="text;html=1;resizable=0;labelBackgroundColor=default;align=center;verticalAlign=middle;fontStyle=1;fontColor=#333333;fontSize=13.3;" vertex="1" parent="JijkfdTZ88voyFKU3NAo-15">
          <mxGeometry x="-0.1901558007902927" relative="1" as="geometry" />
        </mxCell>
        <mxCell id="JijkfdTZ88voyFKU3NAo-17" value="Step 3" style="html=1;overflow=block;blockSpacing=1;whiteSpace=wrap;fontSize=16.7;fontColor=#3a414a;fontStyle=1;spacing=9;strokeColor=#3a414a;strokeOpacity=100;rounded=1;absoluteArcSize=1;arcSize=9;strokeWidth=0.8;lucidId=BDtM6KQoX7uR;" vertex="1" parent="1">
          <mxGeometry x="700" y="617" width="120" height="90" as="geometry" />
        </mxCell>
        <mxCell id="JijkfdTZ88voyFKU3NAo-18" value="" style="html=1;jettySize=18;whiteSpace=wrap;fontSize=13;strokeColor=#3a414a;strokeOpacity=100;strokeWidth=0.8;rounded=1;arcSize=12;edgeStyle=orthogonalEdgeStyle;startArrow=none;endArrow=block;endFill=1;exitX=1.003;exitY=0.5;exitPerimeter=0;entryX=-0.002;entryY=0.5;entryPerimeter=0;lucidId=VDtM--d-9Cu6;" edge="1" parent="1" source="JijkfdTZ88voyFKU3NAo-17" target="JijkfdTZ88voyFKU3NAo-23">
          <mxGeometry width="100" height="100" relative="1" as="geometry">
            <Array as="points" />
          </mxGeometry>
        </mxCell>
        <mxCell id="JijkfdTZ88voyFKU3NAo-19" value="On Exit " style="text;html=1;resizable=0;labelBackgroundColor=default;align=center;verticalAlign=middle;fontStyle=1;fontColor=#333333;fontSize=13.3;" vertex="1" parent="JijkfdTZ88voyFKU3NAo-18">
          <mxGeometry relative="1" as="geometry" />
        </mxCell>
        <mxCell id="JijkfdTZ88voyFKU3NAo-20" value="" style="html=1;jettySize=18;whiteSpace=wrap;fontSize=13;strokeColor=#3a414a;strokeOpacity=100;strokeWidth=0.8;rounded=1;arcSize=12;edgeStyle=orthogonalEdgeStyle;startArrow=none;endArrow=block;endFill=1;exitX=0.5;exitY=1.004;exitPerimeter=0;entryX=0.5;entryY=-0.004;entryPerimeter=0;lucidId=XDtMjYursEiT;" edge="1" parent="1" source="JijkfdTZ88voyFKU3NAo-17" target="JijkfdTZ88voyFKU3NAo-22">
          <mxGeometry width="100" height="100" relative="1" as="geometry">
            <Array as="points" />
          </mxGeometry>
        </mxCell>
        <mxCell id="JijkfdTZ88voyFKU3NAo-21" value="On Continue/Skip" style="text;html=1;resizable=0;labelBackgroundColor=default;align=center;verticalAlign=middle;fontStyle=1;fontColor=#333333;fontSize=13.3;" vertex="1" parent="JijkfdTZ88voyFKU3NAo-20">
          <mxGeometry relative="1" as="geometry" />
        </mxCell>
        <mxCell id="JijkfdTZ88voyFKU3NAo-22" value="&lt;div style=&quot;display: flex; justify-content: center; text-align: center; align-items: baseline; font-size: 0; line-height: 1.25;margin-top: -2px;&quot;&gt;&lt;span&gt;&lt;span style=&quot;font-size:16.7px;color:#3a414a;font-weight: bold;&quot;&gt;Step 5&#xa;&lt;/span&gt;&lt;span style=&quot;font-size:15px;color:#3a414a;&quot;&gt;(Redirect)&lt;/span&gt;&lt;/span&gt;&lt;/div&gt;" style="html=1;overflow=block;blockSpacing=1;whiteSpace=wrap;fontSize=13;spacing=3.8;strokeColor=#3a414a;strokeOpacity=100;rounded=1;absoluteArcSize=1;arcSize=9;strokeWidth=0.8;lucidId=2DtMQdV7nI94;" vertex="1" parent="1">
          <mxGeometry x="700" y="817" width="120" height="90" as="geometry" />
        </mxCell>
        <mxCell id="JijkfdTZ88voyFKU3NAo-23" value="Kevel Click URL&#xa;(different Tab)" style="html=1;overflow=block;blockSpacing=1;whiteSpace=wrap;fontSize=16.7;fontColor=#3a414a;spacing=3.8;strokeColor=#3a414a;strokeOpacity=100;rounded=1;absoluteArcSize=1;arcSize=9;strokeWidth=0.8;lucidId=-EtMEzeYdcmK;" vertex="1" parent="1">
          <mxGeometry x="981" y="563" width="158" height="120" as="geometry" />
        </mxCell>
        <mxCell id="JijkfdTZ88voyFKU3NAo-24" value="Step 4" style="html=1;overflow=block;blockSpacing=1;whiteSpace=wrap;fontSize=16.7;fontColor=#3a414a;fontStyle=1;spacing=9;strokeColor=#3a414a;strokeOpacity=100;rounded=1;absoluteArcSize=1;arcSize=9;strokeWidth=0.8;lucidId=SFtMCjDA215G;" vertex="1" parent="1">
          <mxGeometry x="461" y="541" width="120" height="90" as="geometry" />
        </mxCell>
        <mxCell id="JijkfdTZ88voyFKU3NAo-25" value="" style="html=1;jettySize=18;whiteSpace=wrap;fontSize=13;strokeColor=#3a414a;strokeOpacity=100;strokeWidth=0.8;rounded=1;arcSize=12;edgeStyle=orthogonalEdgeStyle;startArrow=none;endArrow=block;endFill=1;exitX=0.5;exitY=1.004;exitPerimeter=0;entryX=-0.003;entryY=0.5;entryPerimeter=0;lucidId=aGtMJUyxN.z1;" edge="1" parent="1" source="JijkfdTZ88voyFKU3NAo-24" target="JijkfdTZ88voyFKU3NAo-22">
          <mxGeometry width="100" height="100" relative="1" as="geometry">
            <Array as="points" />
          </mxGeometry>
        </mxCell>
        <mxCell id="JijkfdTZ88voyFKU3NAo-26" value="On Continue" style="text;html=1;resizable=0;labelBackgroundColor=default;align=center;verticalAlign=middle;fontStyle=1;fontColor=#333333;fontSize=13.3;" vertex="1" parent="JijkfdTZ88voyFKU3NAo-25">
          <mxGeometry x="-0.6166317024113439" relative="1" as="geometry" />
        </mxCell>
        <mxCell id="JijkfdTZ88voyFKU3NAo-27" value="Site" style="html=1;overflow=block;blockSpacing=1;whiteSpace=wrap;shape=offPageConnector;fontSize=16.7;fontColor=#3a414a;spacing=3.8;strokeColor=#3a414a;strokeOpacity=100;rounded=1;absoluteArcSize=1;arcSize=9;strokeWidth=0.8;lucidId=qHtMiFBJng8.;" vertex="1" parent="1">
          <mxGeometry x="24" y="24" width="90" height="90" as="geometry" />
        </mxCell>
        <mxCell id="JijkfdTZ88voyFKU3NAo-28" value="" style="html=1;jettySize=18;whiteSpace=wrap;fontSize=13;strokeColor=#3a414a;strokeOpacity=100;strokeWidth=0.8;rounded=1;arcSize=12;edgeStyle=orthogonalEdgeStyle;startArrow=none;endArrow=block;endFill=1;exitX=0.5;exitY=0.987;exitPerimeter=0;entryX=-0.003;entryY=0.5;entryPerimeter=0;lucidId=LHtM539NSfsi;" edge="1" parent="1" source="JijkfdTZ88voyFKU3NAo-27" target="JijkfdTZ88voyFKU3NAo-2">
          <mxGeometry width="100" height="100" relative="1" as="geometry">
            <Array as="points" />
          </mxGeometry>
        </mxCell>
        <mxCell id="JijkfdTZ88voyFKU3NAo-29" value="Kevel" style="html=1;overflow=block;blockSpacing=1;whiteSpace=wrap;fontSize=16.7;fontColor=#3a414a;fontStyle=1;align=left;spacing=9;verticalAlign=top;strokeColor=#3a414a;strokeOpacity=100;fillOpacity=100;rounded=1;absoluteArcSize=1;arcSize=9;fillColor=#ffd9d9;strokeWidth=0.8;lucidId=sJtMaaTOeyqN;" vertex="1" parent="1">
          <mxGeometry x="219" y="29" width="390" height="181" as="geometry" />
        </mxCell>
        <mxCell id="JijkfdTZ88voyFKU3NAo-30" value="Treasure&#xa;Mania" style="html=1;overflow=block;blockSpacing=1;whiteSpace=wrap;shape=cylinder3;direction=south;size=10;anchorPointDirection=0;boundedLbl=1;fontSize=16.7;fontColor=#3a414a;spacing=3.8;strokeColor=#3a414a;strokeOpacity=100;rounded=1;absoluteArcSize=1;arcSize=9;strokeWidth=0.8;lucidId=6JtMHD348N3K;" vertex="1" parent="1">
          <mxGeometry x="383" y="74" width="120" height="90" as="geometry" />
        </mxCell>
        <mxCell id="JijkfdTZ88voyFKU3NAo-31" value="" style="html=1;jettySize=18;whiteSpace=wrap;fontSize=13;strokeColor=#3a414a;strokeOpacity=100;strokeWidth=0.8;rounded=1;arcSize=12;edgeStyle=orthogonalEdgeStyle;startArrow=none;endArrow=block;endFill=1;exitX=0.5;exitY=-0.008;exitPerimeter=0;entryX=-0.003;entryY=0.5;entryPerimeter=0;lucidId=jKtM8bMQDdrw;" edge="1" parent="1" source="JijkfdTZ88voyFKU3NAo-2" target="JijkfdTZ88voyFKU3NAo-30">
          <mxGeometry width="100" height="100" relative="1" as="geometry">
            <Array as="points" />
          </mxGeometry>
        </mxCell>
        <mxCell id="JijkfdTZ88voyFKU3NAo-32" value="Get Data&#xa;for User" style="text;html=1;resizable=0;labelBackgroundColor=default;align=center;verticalAlign=middle;fontStyle=1;fontColor=#333333;fontSize=13.3;" vertex="1" parent="JijkfdTZ88voyFKU3NAo-31">
          <mxGeometry relative="1" as="geometry" />
        </mxCell>
        <mxCell id="JijkfdTZ88voyFKU3NAo-33" value="Fire Pixel&#xa;(Conversion)" style="html=1;overflow=block;blockSpacing=1;whiteSpace=wrap;shape=tape;size=0.2;fontSize=16.7;fontColor=#3a414a;spacing=3.8;strokeColor=#3a414a;strokeOpacity=100;rounded=1;absoluteArcSize=1;arcSize=9;strokeWidth=0.8;lucidId=-KtMap6gcAQl;" vertex="1" parent="1">
          <mxGeometry x="904" y="699" width="120" height="90" as="geometry" />
        </mxCell>
        <mxCell id="JijkfdTZ88voyFKU3NAo-34" value="" style="html=1;jettySize=18;whiteSpace=wrap;fontSize=13;strokeColor=#3a414a;strokeOpacity=100;strokeWidth=0.8;rounded=1;arcSize=12;edgeStyle=orthogonalEdgeStyle;startArrow=none;endArrow=block;endFill=1;exitX=1.003;exitY=0.689;exitPerimeter=0;entryX=-0.003;entryY=0.514;entryPerimeter=0;lucidId=eLtMOZbo6VVh;" edge="1" parent="1" source="JijkfdTZ88voyFKU3NAo-17" target="JijkfdTZ88voyFKU3NAo-33">
          <mxGeometry width="100" height="100" relative="1" as="geometry">
            <Array as="points" />
          </mxGeometry>
        </mxCell>
      </root>
    </mxGraphModel>
  </diagram>
</mxfile>
